<?xml version="1.0" standalone="no"?>
<!DOCTYPE svg PUBLIC "-//W3C//DTD SVG 20010904//EN"
 "http://www.w3.org/TR/2001/REC-SVG-20010904/DTD/svg10.dtd">
<svg version="1.0" xmlns="http://www.w3.org/2000/svg"
 width="560.000000pt" height="560.000000pt" viewBox="0 0 560.000000 560.000000"
 preserveAspectRatio="xMidYMid meet">
<metadata>
Created by potrace 1.14, written by Peter Selinger 2001-2017
</metadata>
<g transform="translate(0.000000,560.000000) scale(0.100000,-0.100000)"
fill="#000000" stroke="none">
<path d="M3980 3873 c-488 -33 -820 -376 -893 -923 -13 -97 -14 -270 -3 -350
18 -124 80 -312 132 -397 114 -187 249 -311 424 -392 344 -158 796 -90 1015
152 37 41 56 55 60 46 10 -27 47 -154 57 -196 l10 -43 87 0 88 0 0 540 c0 382
-3 540 -11 541 -13 1 -793 1 -851 0 l-41 -1 1 -114 0 -113 325 0 325 -1 3 -58
c6 -115 -49 -278 -126 -374 -126 -156 -282 -229 -504 -236 -124 -3 -220 16
-323 66 -211 101 -351 314 -396 603 -11 74 -8 298 5 357 4 14 8 36 11 50 12
62 15 76 31 124 81 246 255 418 480 471 66 16 238 22 294 10 14 -2 39 -7 55
-10 96 -19 222 -84 288 -150 53 -54 105 -144 123 -213 l18 -69 130 -1 c81 -1
132 2 136 9 10 16 -26 147 -63 229 -125 274 -409 436 -777 443 -41 1 -91 1
-110 0z"/>
<path d="M685 3822 c-3 -3 -5 -466 -5 -1029 l0 -1023 130 0 130 0 2 858 c3
731 5 851 16 817 8 -22 22 -59 33 -82 10 -24 19 -46 19 -49 0 -3 16 -50 36
-103 69 -180 86 -226 96 -256 5 -16 12 -37 16 -45 3 -8 100 -267 216 -575
l211 -560 119 0 119 0 269 720 c149 396 276 734 283 750 7 17 30 77 51 135
l39 105 3 -857 2 -858 130 0 130 0 0 1029 0 1028 -185 -1 c-108 0 -188 -5
-193 -11 -5 -5 -16 -30 -25 -55 -40 -115 -48 -136 -57 -155 -5 -11 -63 -164
-129 -340 -66 -176 -156 -417 -201 -535 -45 -118 -88 -233 -95 -255 -8 -22
-43 -116 -78 -209 l-64 -168 -91 243 c-304 814 -384 1026 -392 1044 -4 11 -44
115 -87 230 l-78 210 -183 1 c-100 0 -184 -2 -187 -4z"/>
</g>
</svg>
